<svg width="20" height="20" viewBox="0 0 20 20" fill="none" xmlns="http://www.w3.org/2000/svg">
<g clip-path="url(#clip0_21_61)">
<path d="M10 7.50001C8.15833 7.50001 7.5 8.15834 7.5 10C7.5 11.8417 8.15825 12.5 9.99992 12.5C11.8416 12.5 12.5 11.8417 12.5 10C12.5 8.15834 11.8417 7.50001 10 7.50001ZM17.4499 9.16668C17.0666 5.69168 14.3083 2.93334 10.8333 2.55001V0.833344H9.16659V2.55001C5.69159 2.93334 2.93325 5.69168 2.54992 9.16668H0.833252V10.8333H2.54992C2.93325 14.3083 5.69159 17.0667 9.16659 17.45V19.1667H10.8333V17.45C14.3083 17.0667 17.0666 14.3083 17.4499 10.8333H19.1666V9.16668H17.4499ZM9.99992 15.8333C6.77492 15.8333 4.16659 13.225 4.16659 10C4.16659 6.77501 6.77492 4.16668 9.99992 4.16668C13.2249 4.16668 15.8333 6.77501 15.8333 10C15.8333 13.225 13.2249 15.8333 9.99992 15.8333Z" fill="#1C1C1C"/>
</g>
<defs>
<clipPath id="clip0_21_61">
<rect width="20" height="20" fill="white"/>
</clipPath>
</defs>
</svg>
