<svg width="26" height="27" viewBox="0 0 26 27" fill="none" xmlns="http://www.w3.org/2000/svg">
<g filter="url(#filter0_d_21_53)">
<path d="M15.7206 15.7118L15.7189 15.7147C15.4317 16.1723 15.1964 16.6214 15.0152 17.0618C14.4694 15.729 13.4305 14.3205 11.8623 13.1441C11.2093 12.6516 10.5376 12.2589 9.85552 11.9783C11.516 11.3088 13.0531 10.1007 14.1106 8.56691C14.4825 8.02959 14.7853 7.4878 15.0128 6.93246C15.6337 8.45297 16.8483 9.9305 18.3407 10.9867C18.9219 11.4001 19.524 11.7367 20.1432 11.9878C18.4048 12.7234 16.6775 14.2018 15.7206 15.7118Z" stroke="#1C1C1C" stroke-width="1.5"/>
<path d="M8.30682 6.94722L8.30682 6.94722L8.30563 6.9491C8.19179 7.13054 8.09247 7.31014 8.00835 7.4878C7.68992 6.81467 7.1472 6.12355 6.36827 5.53922C6.07595 5.31875 5.77581 5.13411 5.47037 4.98956C6.3029 4.60916 7.06382 3.984 7.60019 3.20606C7.75883 2.97687 7.89499 2.74545 8.00676 2.50949C8.36867 3.27499 8.99325 4.00201 9.74322 4.53278C9.9987 4.71452 10.2622 4.86956 10.5325 4.9952C9.64656 5.42226 8.79499 6.17683 8.30682 6.94722Z" stroke="#1C1C1C"/>
</g>
<defs>
<filter id="filter0_d_21_53" x="-0.5" y="0.5" width="28" height="28" filterUnits="userSpaceOnUse" color-interpolation-filters="sRGB">
<feFlood flood-opacity="0" result="BackgroundImageFix"/>
<feColorMatrix in="SourceAlpha" type="matrix" values="0 0 0 0 0 0 0 0 0 0 0 0 0 0 0 0 0 0 127 0" result="hardAlpha"/>
<feOffset dy="4"/>
<feGaussianBlur stdDeviation="2"/>
<feComposite in2="hardAlpha" operator="out"/>
<feColorMatrix type="matrix" values="0 0 0 0 0 0 0 0 0 0 0 0 0 0 0 0 0 0 0.25 0"/>
<feBlend mode="normal" in2="BackgroundImageFix" result="effect1_dropShadow_21_53"/>
<feBlend mode="normal" in="SourceGraphic" in2="effect1_dropShadow_21_53" result="shape"/>
</filter>
</defs>
</svg>
